<svg xmlns="http://www.w3.org/2000/svg" width="33.496" height="45.525" viewBox="0 0 33.496 45.525"><defs><style>.a{fill:#f7ab37;}.b{fill:#f3be38;}</style></defs><g transform="translate(0 0)"><path class="a" d="M2837.265,1254.376c-.31-.336-.6-.655-.831-.94a1.289,1.289,0,0,1-.233-1.332c.268-.555,1.142-.885,2.338-.885v-5.346c-1.2,0-2.071-.331-2.338-.886a1.288,1.288,0,0,1,.233-1.332c.188-.235.385-.467.586-.7a11.928,11.928,0,0,0,3.439-8.424,7.611,7.611,0,0,0-2.315-5.6c-3.275-3.174-8.849-3.161-9.685-3.14h-2.976v5.346h3.088c1.047-.029,4.4.216,5.858,1.64a2.266,2.266,0,0,1,.684,1.756c0,2.406-.959,3.537-2.172,4.968-.234.279-.466.551-.685.825a6.649,6.649,0,0,0-.873,6.985,1.373,1.373,0,0,1,0,2.48,6.648,6.648,0,0,0,.873,6.985c.345.432.715.835,1.073,1.225,1.261,1.369,2.255,2.451,2.255,4.57a2.267,2.267,0,0,1-.684,1.755c-1.459,1.422-4.8,1.665-5.85,1.64l-3.569,0v5.346h3.449c.065,0,.161,0,.281,0,1.417,0,6.386-.218,9.4-3.144a7.609,7.609,0,0,0,2.315-5.6c0-4.2-2.207-6.6-3.667-8.189" transform="translate(-2807.437 -1225.784)"/><path class="b" d="M2774.945,1271.312h12.715v-5.346h-7.369V1231.14h7.369v-5.346h-12.715Z" transform="translate(-2774.945 -1225.791)"/></g></svg>