<svg width="71px" height="51px" viewBox="0 0 71 51" version="1.1" xmlns="http://www.w3.org/2000/svg" xmlns:xlink="http://www.w3.org/1999/xlink">
    <g id="final" stroke="none" stroke-width="1" fill="none" fill-rule="evenodd">
        <g id="01.-TR-264-case-web-home-B-Copy-3" transform="translate(-1339.000000, -40.000000)" fill="#8BC34A">
            <g id="logo-triad" transform="translate(1339.000000, 40.000000)">
                <g id="Group" transform="translate(0.000400, -0.000100)">
                    <path d="M55.4469,15.5493 L54.0679,15.5493 L54.0679,31.8933 L55.1329,31.8933 C57.1549,31.8933 57.4709,31.8613 58.0899,31.6073 C59.2009,31.1833 59.7369,30.3873 59.9029,28.9423 C59.9609,28.3733 60.0529,25.8203 60.0529,24.4303 C60.0529,20.0073 59.9369,18.3373 59.6209,17.3653 C59.1419,16.0073 58.0659,15.5493 55.4469,15.5493" id="Fill-1"></path>
                    <path d="M25.1578,15.5498 L22.6678,15.5498 L22.6678,22.8148 L24.7378,22.8148 C27.5428,22.8148 28.3388,21.9648 28.3388,19.0178 C28.3388,16.4038 27.5658,15.5498 25.1578,15.5498" id="Fill-3"></path>
                    <polygon id="Fill-5" points="41.2438 26.7583 46.5168 26.7583 43.9088 15.8893"></polygon>
                    <path d="M61.526,29.167 C61.271,31.977 59.562,33.224 55.997,33.224 L52.503,33.224 L52.503,14.305 L56.616,14.305 C58.92,14.305 60.498,15.183 61.152,16.771 C61.467,17.626 61.667,20.033 61.667,23.411 C61.667,25.256 61.585,28.458 61.526,29.167 L61.526,29.167 Z M47.989,33.224 L46.809,28.006 L40.964,28.006 L39.653,33.224 L38.261,33.224 L42.834,14.305 L45.125,14.305 L49.581,33.224 L47.989,33.224 Z M33.808,33.225 L35.363,33.225 L35.363,14.306 L33.808,14.306 L33.808,33.225 Z M29.18,24.402 C29.693,25.056 29.893,25.85 29.893,27.268 L29.893,33.224 L28.338,33.224 L28.338,27.101 C28.338,24.746 27.625,24.064 25.124,24.064 L22.668,24.064 L22.668,33.224 L21.101,33.224 L21.101,14.305 L26.093,14.305 C28.793,14.305 29.951,15.781 29.951,19.128 C29.951,22.022 29.238,23.04 27.063,23.411 C28.279,23.666 28.758,23.863 29.18,24.402 L29.18,24.402 Z M18.46,15.55 L14.357,15.55 L14.357,33.225 L12.79,33.225 L12.79,15.55 L8.71,15.55 L8.71,14.306 L18.46,14.306 L18.46,15.55 Z M9.248,-7.10542736e-15 L6.39488462e-14,4.043 L3.039,43.768 L65.794,50.443 L69.125,41.942 L70.331,2.849 L9.248,-7.10542736e-15 Z" id="Fill-7"></path>
                </g>
            </g>
        </g>
    </g>
  </svg>